<?xml version="1.0" encoding="utf-8"?>
<!-- Generator: Adobe Illustrator 16.0.0, SVG Export Plug-In . SVG Version: 6.00 Build 0)  -->
<!DOCTYPE svg PUBLIC "-//W3C//DTD SVG 1.1//EN" "http://www.w3.org/Graphics/SVG/1.1/DTD/svg11.dtd">
<svg version="1.1" id="Layer_1" xmlns="http://www.w3.org/2000/svg" xmlns:xlink="http://www.w3.org/1999/xlink" x="0px" y="0px"
	 width="100px" height="100px" viewBox="-20 0 100 100" enable-background="new -20 0 100 100" xml:space="preserve">
<g id="그룹_4958" transform="translate(-753 -1049)">
	<line id="사각형_1844_2_" fill="#FFFFFF" x1="812.543" y1="1117.539" x2="752.543" y2="1117.539"/>
	<g id="그룹_4951" transform="translate(226.133 1569.801)">
		<path id="패스_717" fill="#FFFFFF" d="M531.043-455.269h9v-18h-9V-455.269z M532.843-471.469h5.4v14.4h-5.4V-471.469z"/>
		<path id="패스_718" fill="#FFFFFF" d="M558.943-455.269h9v-53.992h-9V-455.269z M560.743-507.461h5.399v50.393h-5.399V-507.461z
			"/>
		<path id="패스_719" fill="#FFFFFF" d="M572.888-493.961v38.7h9v-38.7H572.888z M580.09-457.061h-5.4v-35.1h5.4V-457.061z"/>
		<path id="패스_720" fill="#FFFFFF" d="M544.994-455.269h9v-30.601h-9V-455.269z M546.794-484.069h5.4v27h-5.4V-484.069z"/>
		<path id="패스_721" fill="#FFFFFF" d="M547.693-501.169v1.8h3.677l-20.96,20.96l1.272,1.271l20.96-20.96v3.677h1.8v-6.749
			H547.693z"/>
	</g>
</g>
<text transform="matrix(1 0 0 1 18.5024 84.7373)" fill="#FFFFFF" font-family="'NotoSansCJKkr-Medium-KSCpc-EUC-H'" font-size="12">금융</text>
</svg>
