<?xml version="1.0" encoding="utf-8"?>
<!-- Generator: Adobe Illustrator 16.0.0, SVG Export Plug-In . SVG Version: 6.00 Build 0)  -->
<!DOCTYPE svg PUBLIC "-//W3C//DTD SVG 1.1//EN" "http://www.w3.org/Graphics/SVG/1.1/DTD/svg11.dtd">
<svg version="1.1" id="Layer_1" xmlns="http://www.w3.org/2000/svg" xmlns:xlink="http://www.w3.org/1999/xlink" x="0px" y="0px"
	 width="100px" height="100px" viewBox="-20 0 100 100" enable-background="new -20 0 100 100" xml:space="preserve">
<g id="그룹_4956" transform="translate(-517 -1049)">
	<g id="그룹_4949" transform="translate(298.405 1569.575)">
		<path id="패스_709" fill="#FFFFFF" d="M223.765-464.425v9h50.841v-9H223.765z M272.806-457.224h-47.247v-5.4h47.242
			L272.806-457.224z"/>
		<path id="패스_710" fill="#FFFFFF" d="M237.707-467.572v-18h-9v18H237.707z M230.507-483.771h5.4v14.399h-5.4V-483.771z"/>
		<path id="패스_711" fill="#FFFFFF" d="M269.651-467.572v-18h-9v18H269.651z M262.451-483.771h5.399v14.399h-5.399V-483.771z"/>
		<path id="패스_712" fill="#FFFFFF" d="M253.453-467.572v-18h-9v18H253.453z M246.254-483.771h5.4v14.399h-5.4V-483.771z"/>
		<rect id="사각형_1832" x="223.76" y="-490.969" fill="#FFFFFF" width="50.841" height="1.8"/>
		<path id="패스_713" fill="#FFFFFF" d="M249.18-502.218c4.969,0.004,8.996,4.031,9,9h1.801c-0.008-5.612-4.309-10.285-9.9-10.757
			v-4.99h-1.801v4.99c-5.591,0.472-9.892,5.145-9.899,10.757h1.8C240.184-498.186,244.211-502.213,249.18-502.218z"/>
	</g>
</g>
<text transform="matrix(1 0 0 1 8.085 85.1973)" fill="#FFFFFF" font-family="'NotoSansCJKkr-Medium-KSCpc-EUC-H'" font-size="12">공공기관</text>
</svg>
