<?xml version="1.0" encoding="utf-8"?>
<!-- Generator: Adobe Illustrator 16.0.0, SVG Export Plug-In . SVG Version: 6.00 Build 0)  -->
<!DOCTYPE svg PUBLIC "-//W3C//DTD SVG 1.1//EN" "http://www.w3.org/Graphics/SVG/1.1/DTD/svg11.dtd">
<svg version="1.1" id="Layer_1" xmlns="http://www.w3.org/2000/svg" xmlns:xlink="http://www.w3.org/1999/xlink" x="0px" y="0px"
	 width="100px" height="100px" viewBox="-20 0 100 100" enable-background="new -20 0 100 100" xml:space="preserve">
<g id="Group_5399" transform="translate(-871 -1049)">
	<g id="Group_5402" transform="translate(558.47 59.5)">
		<g id="Group_5401" transform="translate(318 992.5)">
			<g id="Rectangle_2474">
				<path fill="#FFFFFF" d="M49.081,43.845H0.021c-0.552,0-1-0.447-1-1V8.5c0-0.552,0.448-1,1-1h49.06c0.553,0,1,0.448,1,1v34.345
					C50.081,43.397,49.634,43.845,49.081,43.845z M1.021,41.845h47.06V9.5H1.021V41.845z"/>
			</g>
			<g id="Rectangle_2475">
				<path fill="#FFFFFF" d="M44.081,38.845H5.021c-0.552,0-1-0.447-1-1V13.5c0-0.552,0.448-1,1-1h39.06c0.553,0,1,0.448,1,1v24.345
					C45.081,38.397,44.634,38.845,44.081,38.845z M6.021,36.845h37.06V14.5H6.021V36.845z"/>
			</g>
			<g id="Group_5400" transform="translate(6.863)">
				<g id="Path_2467">
					<path fill="none" stroke="#000000" stroke-width="2" stroke-linecap="round" stroke-linejoin="round" d="M0.022,8"/>
				</g>
				<g id="Path_2468">
					<path fill="none" stroke="#000000" stroke-width="2" stroke-linecap="round" stroke-linejoin="round" d="M35.356,8"/>
				</g>
			</g>
			<g id="Rectangle_2476">
				<path fill="#FFFFFF" d="M22.562,38.845h-10c-2.757,0-5-2.243-5-5v-4c0-2.757,2.243-5,5-5h10c2.757,0,5,2.243,5,5v4
					C27.562,36.602,25.319,38.845,22.562,38.845z M12.562,26.845c-1.654,0-3,1.346-3,3v4c0,1.654,1.346,3,3,3h10
					c1.654,0,3-1.346,3-3v-4c0-1.654-1.346-3-3-3H12.562z"/>
			</g>
			<g id="Line_467">
				<path fill="#FFFFFF" d="M14.401,38.845c-0.552,0-1-0.447-1-1v-12c0-0.552,0.448-1,1-1s1,0.448,1,1v12
					C15.401,38.397,14.953,38.845,14.401,38.845z"/>
			</g>
			<g id="Line_468">
				<path fill="#FFFFFF" d="M19.475,38.845c-0.552,0-1-0.447-1-1v-12c0-0.552,0.448-1,1-1s1,0.448,1,1v12
					C20.475,38.397,20.028,38.845,19.475,38.845z"/>
			</g>
		</g>
		<g id="Line_469">
			<path fill="#FFFFFF" d="M325.712,1054.473c-0.168,0-0.339-0.042-0.496-0.132c-0.479-0.274-0.646-0.885-0.372-1.364l10.365-18.128
				c0.274-0.48,0.885-0.647,1.365-0.372c0.479,0.274,0.646,0.885,0.372,1.364l-10.365,18.128
				C326.396,1054.292,326.059,1054.473,325.712,1054.473z"/>
		</g>
		<g id="Line_470">
			<path fill="#FFFFFF" d="M359.582,1054.473c-0.347,0-0.685-0.181-0.869-0.504l-10.365-18.128c-0.274-0.479-0.107-1.09,0.372-1.364
				c0.479-0.275,1.09-0.107,1.364,0.372l10.365,18.128c0.274,0.479,0.107,1.09-0.372,1.364
				C359.921,1054.431,359.75,1054.473,359.582,1054.473z"/>
		</g>
	</g>
</g>
<g>
	<path fill="#FFFFFF" d="M25.997,76.33h-6.393v-0.984h2.579V74.23h1.235v1.115h2.579V76.33z M22.795,80.743
		c-1.559,0-2.626-0.792-2.626-1.967c0-1.188,1.067-1.979,2.626-1.979s2.626,0.792,2.626,1.979
		C25.421,79.951,24.354,80.743,22.795,80.743z M20.924,81.595h7.124v3.526h-1.235V82.59h-5.889V81.595z M22.795,79.796
		c0.863,0,1.451-0.384,1.451-1.02c0-0.647-0.588-1.031-1.451-1.031c-0.864,0-1.439,0.384-1.439,1.031
		C21.355,79.412,21.931,79.796,22.795,79.796z M29.583,78.213h-1.535v2.854h-1.235v-6.776h1.235v2.902h1.535V78.213z"/>
	<path fill="#FFFFFF" d="M33.596,80.155c-1.032,0.048-2.016,0.061-2.867,0.061l-0.155-1.008c1.99-0.012,4.653-0.036,6.944-0.324
		l0.096,0.888c-0.912,0.156-1.859,0.264-2.782,0.313v2.086h-1.235V80.155z M31.4,76.605c0-1.151,1.092-1.907,2.687-1.907
		c1.583,0,2.675,0.756,2.675,1.907s-1.092,1.907-2.675,1.907C32.492,78.513,31.4,77.757,31.4,76.605z M39.856,83.909v1.008h-7.82
		v-3.202h1.235v2.194H39.856z M32.576,76.605c0,0.611,0.611,0.995,1.511,0.995c0.888,0,1.499-0.384,1.499-0.995
		s-0.611-0.995-1.499-0.995C33.188,75.61,32.576,75.994,32.576,76.605z M38.369,80.647v-6.369h1.235v8.24h-1.235v-1.008h-2.123
		v-0.863H38.369z"/>
</g>
</svg>
