<?xml version="1.0" encoding="utf-8"?>
<!-- Generator: Adobe Illustrator 16.0.0, SVG Export Plug-In . SVG Version: 6.00 Build 0)  -->
<!DOCTYPE svg PUBLIC "-//W3C//DTD SVG 1.1//EN" "http://www.w3.org/Graphics/SVG/1.1/DTD/svg11.dtd">
<svg version="1.1" id="Layer_1" xmlns="http://www.w3.org/2000/svg" xmlns:xlink="http://www.w3.org/1999/xlink" x="0px" y="0px"
	 width="100px" height="100px" viewBox="-20 0 100 100" enable-background="new -20 0 100 100" xml:space="preserve">
<g id="그룹_4957" transform="translate(-635 -1049)">
	<g id="그룹_4950" transform="translate(260.764 1567.979)">
		<path id="패스_714" fill="#FFFFFF" d="M426.806-502.571h-46.835c-2.083,0.003-3.772,1.691-3.775,3.775v30.092
			c0.003,2.084,1.691,3.772,3.775,3.775h17.8l-1.033,9.275h-3.4c-0.532,0-0.964,0.432-0.964,0.964s0.432,0.964,0.964,0.964h20.095
			c0.533,0,0.965-0.432,0.965-0.964s-0.432-0.964-0.965-0.964h-3.4l-1.032-9.275h17.8c2.084-0.003,3.773-1.691,3.775-3.775v-30.092
			C430.574-500.877,428.888-502.565,426.806-502.571z M408.096-455.653h-9.414l1.034-9.275h7.348L408.096-455.653z M428.654-468.704
			c-0.002,1.02-0.828,1.847-1.849,1.848h-46.834c-1.02-0.001-1.846-0.828-1.847-1.848v-30.092c0-1.021,0.827-1.847,1.847-1.848
			h46.833c1.021,0.001,1.848,0.828,1.848,1.848L428.654-468.704z"/>
		<path id="패스_715" fill="#FFFFFF" d="M396.883-487.52c-0.016-0.07-0.04-0.137-0.071-0.201c0-0.006,0-0.015-0.008-0.022
			l-3.364-6.726c-0.163-0.326-0.497-0.532-0.861-0.532c-0.365,0-0.699,0.206-0.862,0.532l-3.364,6.726c0,0.008,0,0.017-0.009,0.022
			c-0.03,0.064-0.054,0.132-0.071,0.201v0.008c-0.014,0.065-0.02,0.133-0.02,0.199v13.826c0,0.532,0.432,0.964,0.964,0.964h6.726
			c0.532,0,0.964-0.432,0.964-0.964v-13.826c0-0.066-0.006-0.134-0.02-0.199L396.883-487.52z M392.584-491.886l1.8,3.607h-3.61
			L392.584-491.886z M394.984-474.453h-4.8v-11.899h4.8V-474.453z"/>
		<path id="패스_716" fill="#FFFFFF" d="M419.634-495.586h-19.806c-0.532-0.001-0.964,0.43-0.964,0.962c0,0,0,0,0,0.001v8.969
			c0,0.532,0.432,0.964,0.964,0.964h19.805c0.532,0,0.964-0.432,0.964-0.964v-8.969
			C420.597-495.156,420.166-495.586,419.634-495.586z M418.671-486.618h-17.878v-7.041h1.062v4.268h1.924v-4.268h1.435v2.4h1.928
			v-2.4h1.81v4.268h1.929v-4.268h1.435v2.4h1.928v-2.4h1.438v4.268h1.928v-4.268h1.062L418.671-486.618z"/>
	</g>
</g>
<text transform="matrix(1 0 0 1 17.731 83.7773)" fill="#FFFFFF" font-family="'NotoSansCJKkr-Medium-KSCpc-EUC-H'" font-size="12">제조</text>
</svg>
