<?xml version="1.0" encoding="utf-8"?>
<!-- Generator: Adobe Illustrator 16.0.0, SVG Export Plug-In . SVG Version: 6.00 Build 0)  -->
<!DOCTYPE svg PUBLIC "-//W3C//DTD SVG 1.1//EN" "http://www.w3.org/Graphics/SVG/1.1/DTD/svg11.dtd">
<svg version="1.1" id="Layer_1" xmlns="http://www.w3.org/2000/svg" xmlns:xlink="http://www.w3.org/1999/xlink" x="0px" y="0px"
	 width="100px" height="100px" viewBox="-20 0 100 100" enable-background="new -20 0 100 100" xml:space="preserve">
<g id="그룹_4959" transform="translate(-871 -1049)">
	<g id="그룹_4952" transform="translate(191.02 1569.299)">
		<path id="패스_722" fill="#FFFFFF" d="M734.417-497.36v37.158c-0.001,1.293-1.049,2.341-2.341,2.343h-42.558
			c-1.293-0.002-2.341-1.049-2.342-2.343v-37.158h-1.8v37.158c0.003,2.286,1.855,4.14,4.142,4.142h42.558
			c2.286-0.002,4.139-1.855,4.141-4.142v-37.158H734.417z"/>
		<path id="패스_723" fill="#FFFFFF" d="M690.255-462.774c0.152,0.107,0.334,0.166,0.52,0.166c0.102,0,0.204-0.018,0.3-0.051
			c0.081-0.029,8.219-2.801,19.505,0.023c0.017,0,0.033,0,0.05,0.006s0.062,0.01,0.094,0.014c0.038,0.002,0.075,0.002,0.113,0
			c0.032,0,0.063-0.006,0.094-0.01c0.037-0.006,0.076-0.015,0.113-0.025c0.018-0.004,0.034-0.006,0.051-0.012
			c0.082-0.027,8.256-2.789,19.508,0.024c0.07,0.018,0.145,0.026,0.218,0.026c0.2,0,0.396-0.066,0.554-0.19
			c0.219-0.171,0.346-0.433,0.346-0.709v-37.254c0-0.366-0.221-0.695-0.56-0.833c-1.138-0.463-2.303-0.854-3.489-1.171v-7.381
			c0-0.323-0.172-0.621-0.451-0.781c-0.279-0.161-0.622-0.161-0.9,0l-15.659,9.145c-11.282-4.375-19.931,0.029-20.3,0.222
			c-0.297,0.156-0.483,0.464-0.482,0.8v37.254C689.877-463.218,690.018-462.943,690.255-462.774z M727.285-474.318
			c0.241-0.168,0.385-0.443,0.385-0.737v-25.835c0.753,0.216,1.506,0.457,2.249,0.741v35.5c-5.13-1.184-10.437-1.385-15.642-0.588
			L727.285-474.318z M711.922-500.436l13.947-8.146v33.057l-13.947,9.74V-500.436z M691.675-500.185
			c5.859-2.3,12.373-2.288,18.222,0.035v35.5c-3.123-0.703-6.314-1.062-9.515-1.067c-2.933-0.022-5.857,0.315-8.707,1.008V-500.185z
			"/>
	</g>
</g>
<text transform="matrix(1 0 0 1 19.356 82.9873)" fill="#FFFFFF" font-family="'NotoSansCJKkr-Medium-KSCpc-EUC-H'" font-size="12">학교</text>
</svg>
