<?xml version="1.0" encoding="utf-8"?>
<!-- Generator: Adobe Illustrator 16.0.0, SVG Export Plug-In . SVG Version: 6.00 Build 0)  -->
<!DOCTYPE svg PUBLIC "-//W3C//DTD SVG 1.1//EN" "http://www.w3.org/Graphics/SVG/1.1/DTD/svg11.dtd">
<svg version="1.1" id="Layer_1" xmlns="http://www.w3.org/2000/svg" xmlns:xlink="http://www.w3.org/1999/xlink" x="0px" y="0px"
	 width="100px" height="100px" viewBox="-20 0 100 100" enable-background="new -20 0 100 100" xml:space="preserve">
<g id="그룹_4962" transform="translate(-1225 -1049)">
	<path id="사각형_1847_3_" fill="#FFFFFF" d="M1283.771,1115.813"/>
	<g id="그룹_4954" transform="translate(-70.341 1570.356)">
		<path id="패스_732" fill="#FFFFFF" d="M1349.12-505.004c-2.853-2.91-6.758-4.547-10.833-4.539
			c-4.069-0.008-7.97,1.624-10.819,4.527l-3.11,3.028l-3.1-3.016c-2.853-2.91-6.758-4.546-10.833-4.539
			c-4.075-0.007-7.98,1.629-10.833,4.539c-3.306,3.342-4.919,8.003-4.386,12.674c0.053,0.495,0.496,0.853,0.99,0.801
			c0.001,0,0.002,0,0.003,0c0.494-0.052,0.853-0.496,0.801-0.99c0-0.001,0-0.002,0-0.003c-0.473-4.131,0.954-8.254,3.878-11.211
			c2.516-2.565,5.959-4.007,9.552-4c3.599-0.005,7.048,1.443,9.564,4.016l3.737,3.639c0.35,0.341,0.906,0.341,1.256,0l3.75-3.651
			c2.516-2.565,5.96-4.007,9.552-4c3.594-0.007,7.037,1.435,9.553,4c5.275,5.375,5.275,13.985,0,19.36l-23.482,23.758
			l-19.745-19.977c-0.35-0.354-0.919-0.357-1.272-0.008h0c-0.353,0.35-0.357,0.918-0.008,1.271l20.386,20.625
			c0.169,0.172,0.399,0.268,0.64,0.27c0.241-0.002,0.471-0.098,0.641-0.27l24.123-24.406
			C1355.092-489.184,1355.091-498.926,1349.12-505.004z"/>
		<path id="패스_733" fill="#FFFFFF" d="M1309.743-486.649l1.787-2.085l4.811,10.423c0.149,0.336,0.49,0.545,0.856,0.523
			c0.365-0.016,0.684-0.25,0.808-0.594l4.948-13.7l5.5,17.27c0.105,0.332,0.392,0.572,0.736,0.619c0.04,0.006,0.08,0.008,0.12,0.008
			c0.305,0,0.589-0.152,0.755-0.408l6.749-10.348c0.271-0.416,0.154-0.974-0.262-1.245c-0.416-0.271-0.974-0.153-1.246,0.263
			l-5.713,8.76l-5.724-17.989c-0.117-0.368-0.455-0.62-0.84-0.627c-0.386-0.008-0.733,0.231-0.864,0.594l-5.1,14.136l-4.48-9.707
			c-0.128-0.279-0.39-0.474-0.694-0.516s-0.608,0.073-0.807,0.306l-2.43,2.834h-9.034c-0.497,0-0.9,0.403-0.9,0.9l0,0
			c0,0.497,0.403,0.9,0.9,0.9l0,0h9.448C1309.329-486.334,1309.575-486.45,1309.743-486.649z"/>
	</g>
</g>
<text transform="matrix(1 0 0 1 17.731 83.54)" fill="#FFFFFF" font-family="'NotoSansCJKkr-Medium-KSCpc-EUC-H'" font-size="12">의료</text>
</svg>
